# xmcd
#
# Track frame offsets:
#	150
#	16936
#	36739
#	51906
#	66514
#	83703
#	96869
#	115573
#	131750
#	148302
#	168577
#
# Disc length: 2525 seconds
#
# Revision: 1
# Processed by: cddbd v1.5.1PL0 Copyright (c) Steve Scherf et al.
# Submitted via: audiograbber 1.81.03
#
DISCID=a109db0b
DTITLE=Kevin`Cook - Western Union
DYEAR=2003
DGENRE=Blues
TTITLE0=Funy thing
TTITLE1=Revelation Blues
TTITLE2=Cora Mae
TTITLE3=High Country
TTITLE4=Bed of Spikes
TTITLE5=Lemon Grove
TTITLE6=Early Girl
TTITLE7=New Leaf
TTITLE8=Age of Loneliness
TTITLE9=Rovin Eye
TTITLE10=Searching Kind
EXTD=
EXTT0=
EXTT1=
EXTT2=
EXTT3=
EXTT4=
EXTT5=
EXTT6=
EXTT7=
EXTT8=
EXTT9=
EXTT10=
PLAYORDER=
